#define test_width 318
#define test_height 159
static unsigned char test_bits[] = {
   0x00, 0x00, 0x00, 0x00, 0x00, 0x00, 0x00, 0x00, 0x00, 0x00, 0x00, 0x00,
   0x00, 0x00, 0x00, 0x00, 0x00, 0x00, 0x00, 0x00, 0x00, 0x00, 0x00, 0x00,
   0x00, 0x00, 0x00, 0x00, 0x00, 0x00, 0x00, 0x00, 0x00, 0x00, 0x00, 0x00,
   0x00, 0x00, 0x00, 0x00, 0x00, 0x00, 0x00, 0x00, 0x00, 0x00, 0x00, 0x00,
   0x00, 0x00, 0x00, 0x00, 0x00, 0x00, 0x00, 0x00, 0x00, 0x00, 0x00, 0x00,
   0x00, 0x00, 0x00, 0x00, 0x00, 0x00, 0x00, 0x00, 0x00, 0x00, 0x00, 0x00,
   0x00, 0x00, 0x00, 0x00, 0x00, 0x00, 0x00, 0x00, 0x00, 0x00, 0x00, 0x00,
   0x00, 0x00, 0x00, 0x00, 0x00, 0x00, 0x00, 0x00, 0x00, 0x00, 0x00, 0x00,
   0x00, 0x00, 0x00, 0x00, 0x00, 0x00, 0x00, 0x00, 0x00, 0x00, 0x00, 0x00,
   0x00, 0x00, 0x00, 0x00, 0x00, 0x00, 0x00, 0x00, 0x00, 0x00, 0x00, 0x00,
   0x00, 0x00, 0x00, 0x00, 0x00, 0x00, 0x00, 0x00, 0x00, 0x00, 0x00, 0x00,
   0x00, 0x00, 0x00, 0x00, 0x00, 0x00, 0x00, 0x00, 0x00, 0x00, 0x00, 0x00,
   0x00, 0x00, 0x00, 0x00, 0x00, 0x00, 0x00, 0x00, 0x00, 0x00, 0x00, 0x00,
   0x00, 0x00, 0x00, 0x00, 0x00, 0x00, 0x00, 0x00, 0x00, 0x00, 0x00, 0x00,
   0x00, 0x00, 0x00, 0x00, 0x00, 0x00, 0x00, 0x00, 0x00, 0x00, 0x00, 0x00,
   0x00, 0x00, 0x00, 0x00, 0x00, 0x00, 0x00, 0x00, 0x00, 0x00, 0x00, 0x00,
   0x00, 0x00, 0x00, 0x00, 0x00, 0x00, 0x00, 0x00, 0x00, 0x00, 0x00, 0x00,
   0x00, 0x00, 0x00, 0x00, 0x00, 0x00, 0x00, 0x00, 0x00, 0x00, 0x00, 0x00,
   0x00, 0x00, 0x00, 0x00, 0x00, 0x00, 0x00, 0x00, 0x00, 0x00, 0x00, 0x00,
   0x00, 0x00, 0x00, 0x00, 0x00, 0x00, 0x00, 0x00, 0x00, 0x00, 0x00, 0x00,
   0x00, 0x00, 0x00, 0x00, 0x00, 0x00, 0x20, 0x00, 0x00, 0x00, 0x00, 0x00,
   0x00, 0x00, 0x00, 0x00, 0x00, 0x00, 0x00, 0x00, 0x00, 0x00, 0x00, 0x00,
   0x00, 0x00, 0x00, 0x00, 0x00, 0x00, 0x00, 0x00, 0x00, 0x00, 0x00, 0x00,
   0x00, 0x00, 0x00, 0x00, 0x00, 0x00, 0x00, 0x00, 0x00, 0x00, 0x20, 0x00,
   0x00, 0x00, 0x00, 0x00, 0x00, 0x00, 0x00, 0x00, 0x00, 0x00, 0x00, 0x00,
   0x00, 0x00, 0x00, 0x00, 0x00, 0x00, 0x00, 0x00, 0x00, 0x00, 0x00, 0x00,
   0x00, 0x00, 0x00, 0x00, 0x00, 0x00, 0x00, 0x00, 0x00, 0x00, 0x00, 0x00,
   0x00, 0x00, 0x40, 0x00, 0x00, 0x00, 0x00, 0x00, 0x00, 0x00, 0x00, 0x00,
   0x00, 0x00, 0x00, 0x00, 0x00, 0x00, 0x00, 0x00, 0x00, 0x00, 0x00, 0x00,
   0x00, 0x00, 0x00, 0x00, 0x00, 0x00, 0x00, 0x00, 0x24, 0x00, 0x00, 0x00,
   0x00, 0x00, 0x00, 0x00, 0x00, 0x00, 0x10, 0x00, 0x00, 0x00, 0x00, 0x00,
   0x00, 0x00, 0x00, 0x00, 0x00, 0x00, 0x00, 0x00, 0x00, 0x00, 0x00, 0x00,
   0x00, 0x00, 0x00, 0x00, 0x00, 0x00, 0x00, 0x00, 0x00, 0x00, 0x00, 0x00,
   0xaa, 0x01, 0x00, 0x00, 0x00, 0x00, 0x00, 0x00, 0x00, 0x00, 0x04, 0x00,
   0x00, 0x00, 0x40, 0x00, 0x00, 0x00, 0x00, 0x00, 0x00, 0x00, 0x00, 0x00,
   0x00, 0x00, 0x00, 0x00, 0x00, 0x00, 0x00, 0x00, 0x00, 0x00, 0x00, 0x00,
   0x00, 0x00, 0x00, 0xa0, 0x55, 0x15, 0x00, 0x00, 0x00, 0x00, 0x00, 0x00,
   0x00, 0x00, 0x0c, 0x00, 0x00, 0x00, 0xa0, 0x00, 0x00, 0x00, 0x00, 0x00,
   0x00, 0x00, 0x00, 0x00, 0x00, 0x00, 0x00, 0x00, 0x00, 0x00, 0x00, 0x00,
   0x00, 0x00, 0x00, 0x00, 0x00, 0x00, 0x00, 0x24, 0x55, 0xe9, 0x00, 0x00,
   0x00, 0x00, 0x00, 0x00, 0x00, 0x00, 0x11, 0x00, 0x00, 0x00, 0x90, 0x00,
   0x00, 0x00, 0x00, 0x00, 0x00, 0x00, 0x00, 0x00, 0x00, 0x00, 0x00, 0x00,
   0x00, 0x00, 0x00, 0x00, 0x00, 0x00, 0x00, 0x00, 0x00, 0x00, 0x00, 0x54,
   0x55, 0x85, 0x00, 0x00, 0x00, 0x00, 0x00, 0x00, 0x00, 0x00, 0x06, 0x00,
   0x00, 0x00, 0xa8, 0x15, 0x05, 0x00, 0x00, 0x00, 0x00, 0x00, 0x00, 0x00,
   0x00, 0x00, 0x00, 0x00, 0x00, 0x00, 0x00, 0x00, 0x00, 0x00, 0x00, 0x00,
   0x00, 0x00, 0xa0, 0x2a, 0x55, 0xbd, 0x0a, 0x00, 0x00, 0x00, 0x00, 0x00,
   0x00, 0x80, 0x0a, 0x00, 0x00, 0x00, 0x54, 0xaa, 0x14, 0x00, 0x00, 0x00,
   0x00, 0x00, 0x00, 0x00, 0x00, 0x00, 0x00, 0x00, 0x00, 0x00, 0x00, 0x00,
   0x00, 0x00, 0x00, 0x00, 0x00, 0x00, 0x80, 0x6a, 0x55, 0x51, 0x29, 0x00,
   0x00, 0x00, 0x00, 0x00, 0x00, 0x50, 0x01, 0x00, 0x00, 0xa5, 0x54, 0x15,
   0x00, 0x00, 0x00, 0x00, 0x00, 0x00, 0x00, 0x00, 0x00, 0x00, 0x00, 0x00,
   0x00, 0x00, 0x00, 0x00, 0x00, 0x00, 0x00, 0x00, 0x00, 0x00, 0xad, 0xaa,
   0xaa, 0x56, 0x15, 0x00, 0x00, 0x00, 0x00, 0x00, 0x00, 0xa0, 0x00, 0x00,
   0x00, 0x21, 0xa8, 0x2a, 0x00, 0x00, 0xe0, 0x01, 0x00, 0x00, 0x00, 0x00,
   0x00, 0x00, 0x00, 0x00, 0x00, 0x00, 0x00, 0x60, 0x01, 0x00, 0x00, 0x00,
   0x00, 0x20, 0x54, 0x55, 0x55, 0xa9, 0x2a, 0x02, 0x00, 0x00, 0x00, 0x00,
   0x00, 0x54, 0x01, 0x00, 0x0a, 0xa5, 0xaa, 0x00, 0x00, 0x00, 0x04, 0x00,
   0x00, 0x00, 0x00, 0x00, 0x00, 0x00, 0x00, 0x00, 0x00, 0x00, 0x00, 0xa0,
   0x00, 0x00, 0x00, 0x00, 0x00, 0x24, 0xa9, 0x24, 0x55, 0x55, 0x48, 0x00,
   0x00, 0x00, 0x00, 0x00, 0x80, 0x28, 0x00, 0x00, 0x64, 0x08, 0x95, 0x00,
   0x00, 0x00, 0x68, 0x00, 0x00, 0x00, 0x00, 0x00, 0x00, 0x00, 0x00, 0x00,
   0x00, 0x00, 0x00, 0x28, 0x00, 0x00, 0x00, 0x00, 0x00, 0x54, 0x55, 0x55,
   0xa5, 0x54, 0x8a, 0x01, 0x00, 0x00, 0x00, 0x00, 0x00, 0xa8, 0x00, 0x00,
   0x81, 0x28, 0xaa, 0x00, 0x00, 0x00, 0x48, 0x00, 0x00, 0x00, 0x00, 0x00,
   0x00, 0x00, 0x00, 0x00, 0x00, 0x01, 0x00, 0xa8, 0x00, 0x00, 0x00, 0x00,
   0x40, 0x94, 0xaa, 0xaa, 0xaa, 0x55, 0x00, 0x00, 0x00, 0x00, 0x00, 0x00,
   0xa8, 0x0a, 0x01, 0x00, 0x14, 0x45, 0x29, 0x00, 0x00, 0x00, 0x15, 0x00,
   0x00, 0x00, 0x00, 0x00, 0x00, 0x00, 0x00, 0x00, 0x00, 0x00, 0x00, 0x55,
   0x00, 0x00, 0x00, 0x00, 0xad, 0xaa, 0x0a, 0x42, 0x2a, 0x01, 0x55, 0x05,
   0x00, 0x00, 0x00, 0x00, 0xa0, 0x92, 0x02, 0x00, 0x10, 0x41, 0x15, 0x00,
   0x00, 0x00, 0x0a, 0x00, 0x00, 0x00, 0x00, 0x00, 0x00, 0x00, 0x00, 0x00,
   0x00, 0x22, 0x00, 0xaa, 0x00, 0x00, 0x00, 0x00, 0x55, 0x55, 0x55, 0x84,
   0xaa, 0x02, 0x21, 0x04, 0x00, 0x00, 0x40, 0xa4, 0x42, 0x05, 0x00, 0x00,
   0x20, 0x2a, 0x00, 0x00, 0x00, 0x00, 0x11, 0x00, 0x00, 0x00, 0x00, 0x00,
   0x00, 0x00, 0x00, 0x00, 0x00, 0x00, 0xa9, 0x0a, 0x02, 0x00, 0x00, 0x24,
   0x80, 0x52, 0x94, 0xaa, 0x0a, 0x00, 0x80, 0x12, 0x00, 0x00, 0x00, 0x40,
   0xad, 0xe2, 0x00, 0x00, 0xa0, 0x50, 0x00, 0x00, 0x00, 0x00, 0x03, 0x00,
   0x00, 0x00, 0x00, 0x00, 0x00, 0x00, 0x00, 0x00, 0x00, 0x00, 0x40, 0x15,
   0x01, 0x00, 0xa0, 0xd5, 0x10, 0x40, 0x04, 0x90, 0x2a, 0x10, 0x81, 0x10,
   0x00, 0x00, 0x04, 0x40, 0x55, 0x09, 0x00, 0x40, 0x84, 0x08, 0x00, 0x00,
   0x00, 0x20, 0x02, 0x00, 0x00, 0x00, 0x00, 0x00, 0x00, 0x00, 0x00, 0x00,
   0x20, 0x08, 0x40, 0x15, 0x01, 0x84, 0x80, 0x08, 0x80, 0x12, 0xaa, 0xa8,
   0x0a, 0x00, 0x10, 0x29, 0x80, 0x20, 0xa0, 0xad, 0xaa, 0x10, 0x01, 0x00,
   0x00, 0x00, 0x00, 0x00, 0x00, 0xa8, 0x92, 0x00, 0x00, 0x00, 0x00, 0x00,
   0x00, 0x00, 0x00, 0x00, 0x00, 0x00, 0xa8, 0x42, 0x42, 0xa8, 0x1a, 0x20,
   0x01, 0x14, 0x51, 0x2b, 0x11, 0x01, 0x00, 0x04, 0x00, 0x04, 0x80, 0x52,
   0x55, 0x0c, 0x00, 0x00, 0x00, 0x00, 0x00, 0x00, 0x00, 0xa8, 0x02, 0x00,
   0xd0, 0x00, 0x00, 0x00, 0x00, 0x00, 0x00, 0x00, 0x81, 0x20, 0x54, 0x25,
   0x00, 0xaa, 0x2a, 0x00, 0x00, 0x84, 0xa0, 0xa8, 0x02, 0x00, 0x00, 0x02,
   0x00, 0x80, 0xaa, 0xaa, 0x12, 0x41, 0x00, 0x00, 0x00, 0x00, 0x04, 0x00,
   0x80, 0xaa, 0x02, 0x00, 0x10, 0x00, 0x00, 0x00, 0x00, 0x00, 0x00, 0x00,
   0x00, 0x40, 0xa1, 0x4a, 0x02, 0x00, 0x00, 0x04, 0x80, 0x90, 0xaa, 0xaa,
   0x20, 0x08, 0x21, 0x08, 0x00, 0x00, 0x95, 0xaa, 0x4a, 0x52, 0x00, 0x00,
   0x00, 0x40, 0x15, 0x00, 0xa0, 0xa4, 0x02, 0x00, 0xf0, 0x02, 0x00, 0x00,
   0x00, 0x00, 0x00, 0x08, 0x04, 0x82, 0x56, 0x15, 0x09, 0x04, 0x84, 0x40,
   0x04, 0x25, 0x54, 0x55, 0x02, 0x00, 0x00, 0x10, 0x00, 0x00, 0x50, 0x55,
   0x15, 0x82, 0x00, 0x00, 0x00, 0x40, 0x04, 0x00, 0x40, 0x55, 0x42, 0x02,
   0x80, 0x02, 0x00, 0x00, 0x00, 0x00, 0x00, 0x00, 0x00, 0x80, 0x54, 0x12,
   0x41, 0x40, 0x00, 0x00, 0x88, 0x50, 0xaa, 0xaa, 0x80, 0x00, 0x02, 0x10,
   0x00, 0x00, 0xa0, 0xaa, 0x42, 0x2c, 0x80, 0x00, 0x00, 0x00, 0x59, 0x01,
   0xa8, 0x0a, 0x00, 0x10, 0xb6, 0x0a, 0x00, 0x00, 0x00, 0x00, 0x80, 0x10,
   0x10, 0xbe, 0xaa, 0x45, 0x00, 0x00, 0x00, 0x00, 0x20, 0xaa, 0xaa, 0x2a,
   0x00, 0x08, 0x80, 0x06, 0x00, 0x00, 0x50, 0x55, 0xc5, 0x08, 0x04, 0x00,
   0x00, 0x00, 0x50, 0x01, 0xa8, 0x2a, 0x00, 0x00, 0xa4, 0x0a, 0x00, 0x00,
   0x00, 0x00, 0x00, 0x80, 0x00, 0x50, 0x55, 0x45, 0x01, 0x04, 0x00, 0x04,
   0x60, 0xa8, 0xaa, 0x12, 0x00, 0x00, 0x08, 0x04, 0x00, 0x00, 0x00, 0x90,
   0x08, 0x00, 0x00, 0x00, 0x00, 0x00, 0x84, 0x54, 0xa5, 0x00, 0x02, 0x40,
   0x55, 0x01, 0x00, 0x00, 0x00, 0x00, 0x00, 0x00, 0xaa, 0xaa, 0xea, 0x08,
   0x10, 0x20, 0x21, 0x20, 0x92, 0xaa, 0xaa, 0x0a, 0x00, 0x10, 0x00, 0x00,
   0x00, 0x00, 0x00, 0xa0, 0x10, 0x03, 0x00, 0x00, 0x00, 0x00, 0x80, 0xaa,
   0xaa, 0x02, 0x08, 0x01, 0xaa, 0x46, 0x00, 0x00, 0x00, 0x00, 0x00, 0x00,
   0x54, 0x55, 0xd5, 0x19, 0x00, 0x00, 0x80, 0x00, 0xa8, 0xaa, 0xa4, 0x82,
   0x24, 0x81, 0x00, 0x00, 0x00, 0x00, 0x00, 0x40, 0x08, 0x00, 0x00, 0x00,
   0x00, 0x40, 0x00, 0x29, 0x09, 0x00, 0x00, 0x48, 0x95, 0x24, 0x00, 0x00,
   0x00, 0x00, 0x40, 0x0a, 0x88, 0x00, 0xe8, 0x00, 0x80, 0x00, 0x00, 0x88,
   0x54, 0x55, 0x55, 0x02, 0x00, 0x00, 0x00, 0x00, 0x00, 0x00, 0x00, 0x00,
   0x00, 0x00, 0x00, 0x00, 0x00, 0x00, 0x00, 0x00, 0x20, 0x10, 0x00, 0xa9,
   0xaa, 0x28, 0x01, 0x00, 0x00, 0x00, 0x00, 0xd5, 0x05, 0x00, 0xf0, 0x07,
   0x00, 0x08, 0x04, 0xa8, 0xaa, 0x4a, 0x15, 0x00, 0x00, 0x00, 0x00, 0x01,
   0x00, 0x00, 0x00, 0x00, 0x00, 0x00, 0x37, 0x00, 0x00, 0x00, 0x02, 0x00,
   0x00, 0x00, 0x00, 0x54, 0x55, 0x11, 0x02, 0x00, 0x00, 0x00, 0x00, 0x2a,
   0x05, 0x00, 0xf0, 0x03, 0x00, 0x80, 0x00, 0x90, 0xaa, 0x54, 0x35, 0x00,
   0x00, 0x00, 0x00, 0x00, 0x00, 0x00, 0x00, 0x00, 0x00, 0x00, 0x04, 0x00,
   0x00, 0x20, 0x80, 0x10, 0x00, 0x01, 0xa2, 0xaa, 0x2a, 0x84, 0x00, 0x00,
   0x00, 0x00, 0xaa, 0x0a, 0x00, 0x00, 0xa0, 0x07, 0x00, 0x00, 0xa0, 0xaa,
   0xaa, 0x2a, 0x00, 0x00, 0x00, 0x00, 0x00, 0x00, 0x00, 0x00, 0x00, 0x00,
   0xa8, 0xb5, 0x15, 0x00, 0x00, 0x01, 0x00, 0x40, 0x00, 0x90, 0x50, 0x55,
   0x45, 0xa2, 0x00, 0x00, 0x00, 0x00, 0xaa, 0x0a, 0x00, 0x00, 0xae, 0x1a,
   0x00, 0x00, 0x88, 0xaa, 0xaa, 0x2a, 0x00, 0x00, 0x00, 0x00, 0x00, 0x00,
   0x00, 0x00, 0x00, 0x10, 0x28, 0x55, 0x05, 0x00, 0x00, 0x00, 0x10, 0x00,
   0x10, 0x00, 0x40, 0x55, 0x19, 0x84, 0x00, 0x00, 0x00, 0x00, 0x82, 0x00,
   0x00, 0x00, 0x54, 0x0f, 0x00, 0x00, 0x80, 0x00, 0x00, 0x00, 0x00, 0x00,
   0x00, 0x00, 0x00, 0x00, 0x00, 0x00, 0x50, 0x06, 0x52, 0x55, 0x01, 0x00,
   0x00, 0x12, 0x02, 0x00, 0x02, 0xa2, 0x5b, 0x55, 0xc5, 0x00, 0x00, 0x00,
   0x00, 0x00, 0x00, 0x00, 0x00, 0x00, 0xfa, 0x1f, 0x00, 0x00, 0x00, 0x00,
   0x00, 0x00, 0x00, 0x00, 0x00, 0x00, 0x00, 0x00, 0x00, 0x42, 0x10, 0x04,
   0x55, 0x55, 0x02, 0x00, 0x20, 0x00, 0x00, 0x01, 0x00, 0x20, 0xa4, 0xaa,
   0x0a, 0x01, 0x04, 0x00, 0x02, 0x00, 0x00, 0x00, 0x00, 0x00, 0xea, 0x1f,
   0x00, 0x00, 0x00, 0x00, 0x00, 0x00, 0x00, 0x00, 0x00, 0x00, 0x00, 0x00,
   0x00, 0x00, 0x4a, 0x51, 0x55, 0x52, 0x20, 0x00, 0x00, 0x40, 0x50, 0x14,
   0xa0, 0xca, 0x55, 0x02, 0x20, 0x10, 0x20, 0x11, 0x00, 0x00, 0x00, 0x00,
   0x00, 0x00, 0x10, 0x27, 0x00, 0x00, 0x00, 0x00, 0x00, 0x00, 0x00, 0x00,
   0x00, 0x00, 0x00, 0x00, 0x20, 0x00, 0x88, 0x50, 0x55, 0x55, 0x02, 0x00,
   0x00, 0x04, 0x40, 0x04, 0x01, 0x95, 0xaa, 0x16, 0x28, 0x01, 0x00, 0x00,
   0x00, 0x00, 0x00, 0x00, 0x00, 0x80, 0x30, 0x67, 0x00, 0x00, 0x00, 0x00,
   0x00, 0x00, 0x00, 0x00, 0x00, 0x00, 0x00, 0x00, 0x00, 0x89, 0x02, 0xa9,
   0xaa, 0x0a, 0x00, 0x00, 0x00, 0x80, 0x14, 0x4a, 0xd4, 0xaa, 0xaa, 0x04,
   0x21, 0x80, 0x00, 0x00, 0x00, 0x00, 0x00, 0x00, 0x00, 0x00, 0x00, 0x63,
   0x00, 0x00, 0x00, 0x00, 0x00, 0x00, 0x00, 0x00, 0x00, 0x00, 0x00, 0x00,
   0x00, 0x00, 0x02, 0x55, 0x55, 0x09, 0x00, 0x00, 0x10, 0x20, 0x28, 0x81,
   0xaa, 0xaa, 0xaa, 0x01, 0x40, 0x01, 0x00, 0x10, 0x00, 0x00, 0x00, 0x00,
   0x00, 0x00, 0xa0, 0x5a, 0x00, 0x00, 0x00, 0x00, 0x00, 0x00, 0x00, 0x00,
   0x00, 0x00, 0x00, 0x00, 0x00, 0x80, 0x10, 0x54, 0xa9, 0x05, 0x00, 0x00,
   0x80, 0x40, 0x84, 0x80, 0xaa, 0xaa, 0x2a, 0x01, 0x80, 0x10, 0x92, 0x00,
   0x00, 0x00, 0x00, 0x00, 0x00, 0x00, 0x40, 0x52, 0x00, 0x00, 0x00, 0x00,
   0x00, 0x00, 0x00, 0x00, 0x00, 0x00, 0x00, 0x00, 0x00, 0x80, 0x50, 0x95,
   0x0a, 0x00, 0x00, 0x00, 0x00, 0x18, 0xa5, 0x2d, 0x55, 0x55, 0x25, 0x10,
   0x00, 0x01, 0x00, 0x00, 0x00, 0x00, 0x00, 0x00, 0x00, 0x00, 0x54, 0x1f,
   0x00, 0x00, 0x00, 0x00, 0x00, 0x00, 0x00, 0x00, 0x00, 0x00, 0x00, 0x00,
   0x00, 0x04, 0xa0, 0xaa, 0x14, 0x00, 0x00, 0x00, 0x00, 0x44, 0x51, 0xaa,
   0x52, 0x55, 0x15, 0x02, 0x11, 0x00, 0x00, 0x00, 0x00, 0x00, 0x00, 0x00,
   0x00, 0x00, 0xd6, 0x1d, 0x00, 0x00, 0x00, 0x00, 0x00, 0x00, 0x00, 0x00,
   0x00, 0x00, 0x00, 0x00, 0x00, 0x00, 0x00, 0x00, 0x00, 0x00, 0x00, 0x00,
   0x00, 0x14, 0x45, 0x55, 0x01, 0x00, 0x02, 0x00, 0x00, 0x00, 0x00, 0x00,
   0x00, 0x00, 0x00, 0x00, 0x00, 0x00, 0x54, 0x1b, 0x00, 0x00, 0x00, 0x00,
   0x00, 0x00, 0x00, 0x00, 0x00, 0x00, 0x00, 0x00, 0x20, 0x00, 0x00, 0x00,
   0x00, 0x00, 0x00, 0x00, 0x00, 0x50, 0xb5, 0xaa, 0x00, 0x00, 0x09, 0x00,
   0x00, 0x04, 0x00, 0x00, 0x00, 0x00, 0x00, 0x00, 0x00, 0x00, 0xd4, 0x1e,
   0x00, 0x00, 0x00, 0x00, 0x00, 0x00, 0x00, 0x00, 0x00, 0x00, 0x00, 0x00,
   0x40, 0x24, 0x00, 0x00, 0x00, 0x00, 0x00, 0x00, 0x00, 0x50, 0xa9, 0xaa,
   0x00, 0x00, 0x82, 0x08, 0x02, 0x00, 0x00, 0x00, 0x00, 0x00, 0x00, 0x40,
   0x00, 0x00, 0xb4, 0x1d, 0x00, 0x00, 0x00, 0x00, 0x00, 0x00, 0x00, 0x00,
   0x00, 0x00, 0x00, 0x00, 0x00, 0x00, 0x00, 0x00, 0x00, 0x00, 0x00, 0x00,
   0x00, 0x00, 0x4a, 0x01, 0x00, 0x00, 0x00, 0x00, 0x00, 0x00, 0x00, 0x00,
   0x00, 0x00, 0x00, 0x00, 0x01, 0x00, 0x57, 0x1f, 0x00, 0x00, 0x00, 0x00,
   0x00, 0x00, 0x00, 0x00, 0x00, 0x00, 0x00, 0x00, 0x00, 0x00, 0x00, 0x00,
   0x00, 0x00, 0x00, 0x00, 0x00, 0x00, 0x55, 0x00, 0x00, 0x00, 0x00, 0x00,
   0x00, 0x00, 0x00, 0x00, 0x00, 0x00, 0x00, 0x80, 0x02, 0x00, 0xd6, 0x1a,
   0x00, 0x00, 0x00, 0xb0, 0x0a, 0x00, 0x00, 0x00, 0x00, 0x00, 0x00, 0x00,
   0x00, 0x00, 0x00, 0x00, 0x00, 0x00, 0x00, 0x00, 0x00, 0x00, 0x00, 0x01,
   0x00, 0x00, 0x00, 0x00, 0x00, 0x00, 0x00, 0x00, 0x00, 0x00, 0x00, 0x00,
   0x15, 0x00, 0x6e, 0x1f, 0x00, 0x00, 0x00, 0x50, 0x02, 0x00, 0x00, 0x00,
   0x00, 0x00, 0x00, 0x00, 0x00, 0x00, 0x00, 0x00, 0x00, 0x00, 0x00, 0x00,
   0x00, 0x00, 0x00, 0x00, 0x00, 0x00, 0x00, 0x00, 0x00, 0x00, 0x00, 0x00,
   0x00, 0x00, 0x00, 0x00, 0x05, 0x00, 0x4e, 0x1d, 0x00, 0x00, 0x00, 0xaa,
   0x00, 0x00, 0x40, 0x00, 0x00, 0x00, 0x00, 0x00, 0x00, 0x00, 0x00, 0x00,
   0x00, 0x00, 0x00, 0x00, 0x00, 0x00, 0x00, 0x00, 0x00, 0x00, 0x00, 0x00,
   0x00, 0x00, 0x00, 0x00, 0x00, 0x00, 0x00, 0x00, 0x15, 0x80, 0xee, 0x1f,
   0x00, 0x00, 0x40, 0xa5, 0x00, 0x00, 0x00, 0x00, 0x00, 0x60, 0x01, 0x00,
   0x00, 0x00, 0x00, 0x00, 0x00, 0x00, 0x00, 0x00, 0x00, 0x00, 0x00, 0x00,
   0x00, 0x00, 0x00, 0x00, 0x00, 0x00, 0x00, 0x00, 0x00, 0x00, 0x00, 0x00,
   0x0a, 0x00, 0x4a, 0x1d, 0x00, 0x00, 0xa0, 0x04, 0x00, 0x00, 0x04, 0x40,
   0x00, 0x88, 0x00, 0x00, 0x00, 0x00, 0x00, 0x00, 0x00, 0x00, 0x00, 0x00,
   0x00, 0x00, 0x00, 0x00, 0x00, 0x00, 0x00, 0x00, 0x00, 0x00, 0x00, 0x00,
   0x00, 0x00, 0x00, 0x80, 0x4a, 0x02, 0xea, 0x1e, 0x00, 0x00, 0x50, 0x05,
   0x01, 0x00, 0x40, 0x02, 0x00, 0xab, 0x22, 0x00, 0x00, 0x00, 0x00, 0x00,
   0x00, 0x00, 0x00, 0x00, 0x00, 0x00, 0x00, 0x00, 0x00, 0x00, 0x00, 0x00,
   0x00, 0x00, 0x00, 0x00, 0x00, 0x00, 0x00, 0x00, 0x0a, 0x08, 0x94, 0x1d,
   0x00, 0x00, 0x92, 0x04, 0x00, 0x00, 0x00, 0x04, 0x50, 0xaa, 0x00, 0x00,
   0x00, 0x00, 0x00, 0x00, 0x00, 0x00, 0x00, 0x00, 0x00, 0x00, 0x00, 0x00,
   0x00, 0x00, 0x00, 0x00, 0x00, 0x00, 0x00, 0x00, 0x00, 0x00, 0x00, 0x00,
   0x54, 0x40, 0x6b, 0x1f, 0x00, 0x00, 0x54, 0x21, 0x04, 0x40, 0x00, 0x00,
   0xa9, 0x42, 0x16, 0x00, 0x00, 0x00, 0x00, 0x00, 0x00, 0x00, 0x00, 0x00,
   0x00, 0x00, 0x00, 0x00, 0x00, 0x00, 0x00, 0x00, 0x00, 0x00, 0x00, 0x00,
   0x00, 0x00, 0x00, 0x00, 0x54, 0x00, 0x54, 0x1d, 0x90, 0x84, 0x54, 0x00,
   0x00, 0x00, 0x04, 0x10, 0x28, 0x21, 0x00, 0x00, 0x00, 0x00, 0x00, 0x00,
   0x00, 0x00, 0x00, 0x00, 0x00, 0x00, 0x00, 0x00, 0x00, 0x00, 0x00, 0x00,
   0x00, 0x00, 0x00, 0x00, 0x00, 0x00, 0x00, 0x40, 0x14, 0x00, 0xea, 0x1b,
   0x00, 0x00, 0x45, 0x01, 0x00, 0x00, 0x00, 0xa4, 0xaa, 0x94, 0x02, 0x00,
   0x00, 0x00, 0x00, 0x00, 0x00, 0x00, 0x00, 0x00, 0x00, 0x00, 0x00, 0x00,
   0x00, 0x00, 0x00, 0x00, 0x00, 0x00, 0x00, 0x00, 0x00, 0x00, 0x00, 0x00,
   0x54, 0x01, 0x94, 0x1e, 0x00, 0x80, 0x8a, 0x00, 0x00, 0x80, 0x20, 0xa0,
   0x4a, 0x88, 0x02, 0x00, 0x00, 0x00, 0x00, 0x00, 0x00, 0x00, 0x00, 0x00,
   0x00, 0x00, 0x00, 0x00, 0x00, 0x00, 0x00, 0x00, 0x00, 0x00, 0x00, 0x00,
   0x00, 0x00, 0x00, 0x00, 0x28, 0x04, 0xd5, 0x1f, 0x80, 0x2a, 0x21, 0x02,
   0x00, 0x00, 0x4a, 0xaa, 0x92, 0x00, 0x00, 0x00, 0x00, 0x00, 0x00, 0x00,
   0x00, 0x00, 0x00, 0x00, 0x00, 0x00, 0x00, 0x00, 0x00, 0x00, 0x00, 0x00,
   0x00, 0x00, 0x00, 0x80, 0x12, 0x00, 0x00, 0x02, 0x54, 0x01, 0x54, 0x1d,
   0x00, 0x54, 0x51, 0x00, 0x00, 0x20, 0xa8, 0xaa, 0x02, 0x65, 0x00, 0x00,
   0x00, 0x00, 0x00, 0x00, 0x00, 0x00, 0x00, 0x00, 0x00, 0x00, 0x00, 0x00,
   0x00, 0x00, 0x00, 0x00, 0x00, 0x00, 0x02, 0x80, 0x2a, 0x00, 0x00, 0x00,
   0x54, 0x01, 0xd5, 0x1f, 0x00, 0x54, 0x11, 0x20, 0x00, 0x00, 0xaa, 0x2a,
   0x01, 0x21, 0x01, 0x00, 0x00, 0x00, 0x00, 0x00, 0x00, 0x00, 0x00, 0x00,
   0x01, 0x00, 0x00, 0x00, 0x00, 0x00, 0x00, 0x00, 0x00, 0x00, 0x00, 0x94,
   0x02, 0x00, 0x10, 0x88, 0x2a, 0x0a, 0x54, 0x3d, 0xa9, 0x54, 0x44, 0x01,
   0x00, 0xa0, 0xaa, 0xaa, 0x00, 0x00, 0x00, 0x00, 0x00, 0x00, 0x00, 0x00,
   0x00, 0x00, 0x00, 0x50, 0x16, 0x00, 0x00, 0x00, 0x00, 0x00, 0x00, 0x00,
   0x00, 0x00, 0x90, 0x28, 0x0d, 0x00, 0x00, 0x00, 0x55, 0x04, 0x6a, 0x1f,
   0xa0, 0x55, 0x4a, 0x01, 0x00, 0x40, 0x55, 0x55, 0x00, 0x00, 0x00, 0x00,
   0x00, 0x00, 0x00, 0x00, 0x00, 0x12, 0x00, 0xa0, 0x02, 0x00, 0x00, 0x00,
   0x00, 0x00, 0x00, 0x00, 0x00, 0x00, 0x11, 0x55, 0x01, 0x00, 0x40, 0x00,
   0x15, 0x28, 0x4a, 0x9d, 0xa4, 0x8a, 0x00, 0x00, 0x00, 0x00, 0x25, 0x00,
   0x00, 0x00, 0x00, 0x00, 0x00, 0x00, 0x00, 0x00, 0x00, 0x00, 0x00, 0xad,
   0x02, 0x00, 0x00, 0x00, 0x00, 0x00, 0x00, 0x00, 0x00, 0x10, 0x64, 0x55,
   0x00, 0x00, 0x00, 0x88, 0xca, 0x21, 0xf4, 0x1d, 0x55, 0x85, 0x2a, 0x00,
   0x1f, 0x80, 0x2a, 0x00, 0x00, 0x00, 0x00, 0x00, 0x00, 0x00, 0x00, 0x00,
   0x00, 0x40, 0x00, 0x54, 0x05, 0x00, 0x00, 0x00, 0x00, 0x00, 0x00, 0x00,
   0x00, 0x00, 0x90, 0x52, 0x00, 0x00, 0x80, 0x80, 0x0a, 0x21, 0x45, 0x1f,
   0x55, 0x8d, 0xa8, 0x00, 0x1f, 0x80, 0x0a, 0x00, 0x00, 0x00, 0x00, 0x00,
   0x00, 0x00, 0x00, 0x00, 0x20, 0x00, 0x42, 0x15, 0x02, 0x00, 0x00, 0x00,
   0x00, 0x00, 0x00, 0x00, 0x00, 0xa0, 0xae, 0x8a, 0x01, 0x00, 0x04, 0x28,
   0x21, 0x06, 0xb4, 0x1d, 0x00, 0x00, 0x00, 0x80, 0x7e, 0x00, 0x00, 0x00,
   0x00, 0x00, 0x00, 0x00, 0x00, 0x00, 0x00, 0x00, 0x00, 0x02, 0x00, 0x55,
   0x04, 0x00, 0x00, 0x00, 0x00, 0x00, 0x00, 0x00, 0x00, 0x00, 0xa9, 0x0a,
   0x02, 0x00, 0x00, 0xa0, 0x22, 0x08, 0x54, 0x1f, 0x00, 0x00, 0x00, 0xa0,
   0x7f, 0x00, 0x00, 0x00, 0x00, 0x00, 0x00, 0x00, 0x00, 0x00, 0x00, 0x00,
   0x00, 0x88, 0x54, 0x15, 0x01, 0x00, 0x00, 0x00, 0x00, 0x00, 0x00, 0x00,
   0x80, 0x6a, 0x55, 0xa8, 0x00, 0x00, 0x20, 0xa1, 0x92, 0x04, 0xea, 0x1e,
   0x00, 0x00, 0x00, 0xc0, 0x7e, 0x00, 0x00, 0x00, 0x00, 0x00, 0x00, 0x00,
   0x00, 0x00, 0x00, 0x00, 0x02, 0x00, 0x55, 0x45, 0x19, 0x00, 0x00, 0x00,
   0x00, 0x00, 0x00, 0x00, 0x00, 0x49, 0xa5, 0x20, 0x00, 0x80, 0xa0, 0x56,
   0x85, 0x00, 0x92, 0x1d, 0x00, 0x00, 0x00, 0x80, 0x7f, 0x00, 0x00, 0x00,
   0xf0, 0x00, 0x00, 0x00, 0x00, 0x00, 0x00, 0x40, 0x10, 0x80, 0x4a, 0x85,
   0x10, 0x00, 0x00, 0x00, 0x00, 0x00, 0x00, 0x00, 0xd0, 0xb6, 0xaa, 0x40,
   0x00, 0x00, 0x84, 0x54, 0x15, 0x01, 0xd4, 0x1e, 0x00, 0x00, 0x00, 0xc0,
   0x7e, 0x00, 0x00, 0x00, 0x78, 0x00, 0x00, 0x00, 0x00, 0x08, 0x00, 0x00,
   0x40, 0xad, 0xaa, 0x28, 0x06, 0x00, 0x00, 0x00, 0x00, 0x00, 0x00, 0x00,
   0x00, 0x00, 0x00, 0x00, 0x00, 0x00, 0x54, 0x01, 0x00, 0x00, 0xae, 0x1d,
   0x00, 0x00, 0x00, 0xd8, 0xff, 0x03, 0x00, 0x00, 0xf6, 0x03, 0x00, 0x06,
   0x88, 0x00, 0x00, 0x00, 0x00, 0x55, 0x55, 0x11, 0x02, 0x00, 0x00, 0x00,
   0x00, 0x00, 0x00, 0x00, 0x00, 0x00, 0x00, 0x00, 0x00, 0x40, 0x55, 0x01,
   0x00, 0x00, 0xd6, 0x1e, 0x00, 0x00, 0x00, 0x68, 0xfd, 0x03, 0x00, 0x00,
   0xf6, 0x03, 0x00, 0x06, 0x00, 0x00, 0x00, 0x00, 0x01, 0x00, 0x00, 0x80,
   0x94, 0x00, 0x00, 0x00, 0x00, 0x00, 0x00, 0x00, 0x00, 0x00, 0x00, 0x00,
   0x00, 0x00, 0x00, 0x00, 0x00, 0x00, 0xae, 0x1d, 0x00, 0x00, 0x00, 0xb8,
   0xff, 0x03, 0x00, 0x00, 0xfd, 0x03, 0x00, 0x06, 0x00, 0x00, 0x00, 0x00,
   0x00, 0x00, 0x00, 0x00, 0x00, 0x08, 0x00, 0x00, 0x00, 0x00, 0x00, 0x00,
   0x00, 0x00, 0x00, 0x00, 0x00, 0x00, 0x00, 0x00, 0x00, 0x00, 0x56, 0x1f,
   0x80, 0x0a, 0x00, 0x78, 0xfd, 0x7f, 0x00, 0x00, 0xf6, 0x03, 0x00, 0x06,
   0x04, 0x09, 0x00, 0x00, 0x00, 0x00, 0x00, 0x40, 0x01, 0x00, 0x00, 0x00,
   0x00, 0x00, 0x00, 0x00, 0x00, 0x00, 0x00, 0x00, 0x00, 0x00, 0x00, 0x00,
   0x00, 0x00, 0x6e, 0x1d, 0x80, 0x07, 0x00, 0xd8, 0xff, 0x7f, 0x00, 0x00,
   0xfa, 0x03, 0x00, 0x06, 0x00, 0x00, 0x00, 0x00, 0x00, 0x00, 0x00, 0x00,
   0x00, 0x20, 0x00, 0x00, 0x00, 0x00, 0x00, 0x00, 0x00, 0x00, 0x00, 0x00,
   0x00, 0x00, 0x00, 0x00, 0x00, 0x00, 0xd4, 0x1d, 0x60, 0x3b, 0x00, 0x7e,
   0xfd, 0xff, 0x01, 0xc0, 0xf7, 0x0f, 0x80, 0x3f, 0x00, 0x10, 0x00, 0x00,
   0x00, 0x00, 0x00, 0x00, 0x80, 0x04, 0x92, 0x00, 0x40, 0x00, 0x00, 0x00,
   0x00, 0x00, 0x00, 0x00, 0x00, 0x00, 0x00, 0x00, 0x00, 0x00, 0x54, 0x1f,
   0xe0, 0x3e, 0x00, 0xfe, 0xff, 0xff, 0x01, 0xc0, 0xfd, 0x0f, 0x80, 0x3f,
   0x10, 0x00, 0x00, 0x00, 0x00, 0x00, 0x00, 0x00, 0x00, 0x00, 0x00, 0x00,
   0x00, 0x00, 0x00, 0x00, 0x00, 0x00, 0x00, 0x00, 0x00, 0x00, 0x00, 0x00,
   0x00, 0x00, 0xaa, 0x1d, 0xe0, 0x77, 0x00, 0xbe, 0xfd, 0xff, 0x01, 0xc0,
   0xfe, 0x1f, 0x80, 0x3f, 0x00, 0x00, 0x00, 0x00, 0x00, 0x00, 0x00, 0x00,
   0x00, 0x00, 0x00, 0x00, 0x00, 0x00, 0x00, 0x00, 0x00, 0x00, 0x00, 0x00,
   0x00, 0x00, 0x00, 0x00, 0x00, 0x00, 0x54, 0x1b, 0xe0, 0xff, 0x01, 0xfe,
   0xff, 0xff, 0x0f, 0xf8, 0xfd, 0x0f, 0x80, 0x3f, 0x00, 0x00, 0x00, 0x00,
   0x00, 0x00, 0x00, 0x00, 0x00, 0x00, 0x00, 0x00, 0x04, 0x00, 0x00, 0x00,
   0x00, 0x00, 0x00, 0x00, 0x00, 0x00, 0x00, 0x00, 0x00, 0x00, 0xd4, 0x1e,
   0xe0, 0xfd, 0x01, 0xfe, 0xfe, 0xff, 0x0f, 0xf8, 0xff, 0x1f, 0x80, 0x3f,
   0x00, 0x00, 0x00, 0x00, 0x00, 0x00, 0x00, 0x00, 0x00, 0x00, 0x00, 0x00,
   0x00, 0x00, 0x00, 0x00, 0x00, 0x00, 0x00, 0x00, 0x00, 0x00, 0x00, 0x00,
   0x00, 0x00, 0xaa, 0x1d, 0xfc, 0xff, 0xc1, 0xff, 0xff, 0xff, 0xcf, 0xff,
   0xfe, 0x7f, 0xf0, 0x3f, 0x00, 0x00, 0x00, 0x00, 0x00, 0x00, 0x00, 0x00,
   0x00, 0x00, 0x00, 0x00, 0x00, 0x00, 0x00, 0x00, 0x00, 0x02, 0x00, 0x00,
   0x00, 0x00, 0x00, 0x00, 0x00, 0x00, 0xa8, 0x1e, 0xfc, 0xfb, 0xc1, 0xff,
   0xff, 0xff, 0xcf, 0xbf, 0xff, 0x7f, 0xf0, 0x3f, 0x00, 0x00, 0x00, 0x00,
   0x00, 0x00, 0x00, 0x00, 0x00, 0x00, 0x00, 0x00, 0x00, 0x00, 0x00, 0x00,
   0x80, 0x00, 0x00, 0x00, 0x00, 0x00, 0x00, 0x00, 0x00, 0x00, 0xd4, 0x1d,
   0xfc, 0xff, 0xe5, 0xff, 0xfe, 0xff, 0xef, 0xbf, 0xfe, 0x7f, 0xf0, 0x3f,
   0x00, 0x00, 0x00, 0x00, 0x00, 0x00, 0x00, 0x00, 0x00, 0x00, 0x00, 0x00,
   0x00, 0x00, 0x00, 0x00, 0x50, 0x10, 0x00, 0x00, 0x00, 0x00, 0x00, 0x00,
   0x00, 0x00, 0xaa, 0x1d, 0xfc, 0xfb, 0xff, 0xff, 0xff, 0xff, 0xff, 0xff,
   0xfd, 0x7f, 0xfc, 0x3f, 0x00, 0x00, 0x00, 0x00, 0x00, 0x00, 0x10, 0x00,
   0x00, 0x00, 0x00, 0x00, 0x00, 0x00, 0x00, 0x00, 0x50, 0x01, 0x00, 0x00,
   0x00, 0x00, 0x00, 0x00, 0x00, 0x00, 0x52, 0x1f, 0xfc, 0xff, 0xff, 0xff,
   0xfe, 0xff, 0xff, 0x7f, 0xff, 0x7f, 0xfe, 0x3f, 0x00, 0x00, 0x00, 0x00,
   0x00, 0x00, 0x54, 0x00, 0x00, 0x00, 0x00, 0x00, 0x00, 0x00, 0x00, 0xd0,
   0x55, 0x46, 0x00, 0x00, 0x00, 0x00, 0x00, 0x24, 0x00, 0x00, 0xba, 0xfd,
   0xff, 0xfb, 0xff, 0xff, 0xff, 0xff, 0xff, 0xbf, 0xff, 0xff, 0xff, 0x3f,
   0x00, 0x00, 0x00, 0x00, 0x00, 0x00, 0x10, 0x04, 0x00, 0x00, 0x00, 0x00,
   0x00, 0x00, 0x00, 0x20, 0x15, 0x44, 0x00, 0x00, 0x00, 0x00, 0x00, 0xd5,
   0x21, 0x80, 0x6a, 0xfd, 0xff, 0xff, 0xff, 0xff, 0xff, 0xff, 0xff, 0xff,
   0xff, 0xff, 0xff, 0x3f, 0x00, 0x00, 0x00, 0x00, 0x00, 0x80, 0x4a, 0x11,
   0x00, 0x00, 0x00, 0x00, 0x00, 0x00, 0x00, 0x52, 0x00, 0x10, 0x00, 0x00,
   0x00, 0x00, 0x52, 0x21, 0x14, 0x00, 0xd5, 0xff, 0xff, 0xff, 0xff, 0xff,
   0xff, 0xff, 0xff, 0xbf, 0xff, 0xff, 0xff, 0x3f, 0x00, 0x00, 0x00, 0x00,
   0x00, 0x58, 0x0a, 0x21, 0x00, 0x00, 0x00, 0x00, 0x00, 0x00, 0x50, 0x15,
   0x00, 0x28, 0x00, 0x00, 0x00, 0x02, 0x4a, 0xa5, 0x04, 0x80, 0x5a, 0xfd,
   0xff, 0xff, 0xff, 0xff, 0xff, 0xff, 0xff, 0xff, 0xff, 0xff, 0xff, 0x3f,
   0x00, 0x00, 0x00, 0x00, 0x00, 0xa4, 0x8a, 0x28, 0x00, 0x00, 0x00, 0x00,
   0x00, 0x00, 0xa0, 0x2a, 0x00, 0x00, 0x00, 0x00, 0x40, 0x08, 0x95, 0x22,
   0x08, 0x40, 0xb5, 0xfb, 0xff, 0xff, 0xff, 0xff, 0xff, 0xff, 0xff, 0xaf,
   0xff, 0xff, 0xff, 0x3f, 0x00, 0x00, 0x00, 0x00, 0x00, 0x2d, 0x00, 0x44,
   0x05, 0xe0, 0x03, 0x00, 0x00, 0x00, 0x2d, 0x00, 0x00, 0x00, 0x00, 0x00,
   0x00, 0x74, 0x15, 0x04, 0x00, 0x00, 0xb5, 0xfe, 0xff, 0xff, 0xff, 0xff,
   0xff, 0xff, 0xff, 0xff, 0xff, 0xff, 0xff, 0x3f, 0x00, 0x00, 0x00, 0x00,
   0x00, 0x52, 0x00, 0x8a, 0x00, 0xe4, 0x03, 0x00, 0x00, 0x20, 0x55, 0x00,
   0x00, 0x00, 0x00, 0x00, 0x00, 0x4a, 0x15, 0x08, 0x00, 0x80, 0xea, 0xfd,
   0xff, 0xff, 0xff, 0xff, 0xff, 0xff, 0xff, 0xef, 0xff, 0xff, 0xff, 0x3f,
   0x00, 0x00, 0x00, 0x00, 0x00, 0x00, 0x00, 0x00, 0x40, 0xe0, 0x03, 0x80,
   0xc2, 0x00, 0x00, 0x00, 0x00, 0x00, 0x00, 0x00, 0xa0, 0x02, 0x00, 0x00,
   0x00, 0x80, 0xaa, 0xff, 0xff, 0xff, 0xff, 0xff, 0xff, 0xff, 0xff, 0xff,
   0xff, 0xff, 0xff, 0x3f, 0x00, 0x00, 0x00, 0x00, 0x00, 0x00, 0x00, 0x00,
   0x00, 0xe0, 0x03, 0x80, 0xc7, 0x00, 0x00, 0x00, 0x00, 0x00, 0x00, 0x00,
   0x52, 0x02, 0x00, 0x00, 0x00, 0x00, 0x5d, 0xff, 0xff, 0xff, 0xff, 0xff,
   0xff, 0xff, 0xff, 0xff, 0xff, 0xff, 0xff, 0x3f, 0x00, 0x00, 0x00, 0x00,
   0x00, 0x00, 0x00, 0x00, 0x00, 0xe0, 0x03, 0x00, 0xc7, 0x00, 0x00, 0x00,
   0x00, 0x00, 0x00, 0x00, 0x90, 0x02, 0x00, 0x00, 0x00, 0x80, 0xf2, 0xff,
   0xff, 0xff, 0xff, 0xff, 0xff, 0xff, 0xff, 0xff, 0xff, 0xff, 0xff, 0x3f,
   0x00, 0x00, 0x00, 0x00, 0x00, 0x00, 0x00, 0x00, 0x00, 0xff, 0x03, 0x00,
   0xfe, 0x00, 0x00, 0x00, 0x00, 0x00, 0x00, 0x00, 0x00, 0x00, 0x00, 0x00,
   0x00, 0x80, 0x5a, 0xff, 0xff, 0xff, 0xff, 0xff, 0xff, 0xff, 0xff, 0xff,
   0xff, 0xff, 0xff, 0x3f, 0x00, 0x00, 0x00, 0x00, 0x00, 0x00, 0x00, 0x00,
   0x00, 0xff, 0x03, 0x00, 0xfe, 0x00, 0x00, 0x00, 0x00, 0x00, 0x00, 0x00,
   0x00, 0x00, 0x00, 0x00, 0x00, 0x00, 0xd5, 0xff, 0xff, 0xff, 0xff, 0xff,
   0xff, 0xff, 0xff, 0xff, 0xff, 0xff, 0xff, 0x3f, 0x00, 0x00, 0x00, 0x00,
   0x00, 0x00, 0x00, 0x00, 0x00, 0xfc, 0x03, 0x00, 0xfe, 0x02, 0x00, 0x00,
   0x00, 0x00, 0x00, 0x00, 0x00, 0x00, 0x00, 0x00, 0x00, 0xc0, 0x6f, 0xff,
   0xff, 0xff, 0xef, 0xff, 0xff, 0xff, 0xff, 0xff, 0xff, 0xff, 0xff, 0x3f,
   0x00, 0xfc, 0x00, 0x60, 0x03, 0x00, 0x3f, 0x00, 0x00, 0xfc, 0x03, 0x00,
   0xfe, 0x1f, 0x3f, 0xd0, 0x07, 0xb0, 0x03, 0xf8, 0x0f, 0x00, 0x0e, 0xe0,
   0x07, 0xc0, 0xda, 0xff, 0xff, 0xff, 0xff, 0xff, 0xff, 0xff, 0xff, 0xff,
   0xff, 0xff, 0xff, 0x3f, 0x00, 0x50, 0x01, 0xd0, 0x02, 0x00, 0x15, 0x00,
   0x00, 0xf8, 0x03, 0x00, 0xfe, 0x1f, 0x52, 0xa0, 0x02, 0x50, 0x01, 0x48,
   0x05, 0x00, 0x18, 0x40, 0x0d, 0x80, 0x77, 0xff, 0xff, 0xff, 0xef, 0xff,
   0xff, 0xff, 0xff, 0xff, 0xff, 0xff, 0xff, 0x3f, 0x22, 0x55, 0x22, 0x5a,
   0x05, 0x50, 0x55, 0x12, 0xe0, 0xfd, 0x8b, 0x80, 0xfe, 0xff, 0x56, 0x55,
   0x26, 0x55, 0x25, 0x55, 0x49, 0x24, 0x13, 0xd1, 0x93, 0xf8, 0xed, 0xff,
   0xff, 0xff, 0xff, 0xff, 0xff, 0xff, 0xff, 0xff, 0xff, 0xff, 0xff, 0x3f,
   0x5a, 0x55, 0xd5, 0xaa, 0xfa, 0x56, 0xd5, 0xd4, 0xee, 0x82, 0x57, 0x5f,
   0xff, 0xff, 0x55, 0x52, 0x55, 0x55, 0x55, 0x55, 0x57, 0x55, 0x6a, 0xad,
   0x57, 0xfb, 0xd7, 0xff, 0xff, 0xff, 0xef, 0xff, 0xff, 0xff, 0xff, 0xff,
   0xff, 0xff, 0xff, 0x3f, 0x55, 0x55, 0x55, 0xab, 0x8a, 0xaa, 0x95, 0x95,
   0xf4, 0xff, 0xab, 0xb8, 0xfe, 0xfd, 0xd5, 0x6e, 0xd5, 0x55, 0xad, 0xaa,
   0xea, 0xd5, 0x4a, 0xa9, 0xff, 0xff, 0xdf, 0xff, 0xff, 0xff, 0xff, 0xff,
   0xff, 0xff, 0xff, 0xff, 0xff, 0xff, 0xff, 0x3f, 0x5b, 0x55, 0xd5, 0xf6,
   0xbf, 0xea, 0xb6, 0xb6, 0xea, 0xbf, 0x77, 0xff, 0xd6, 0xff, 0x7e, 0x55,
   0xb5, 0xaa, 0xba, 0xaa, 0x5b, 0x55, 0x55, 0xd3, 0xff, 0xff, 0xff, 0xff,
   0xff, 0xff, 0xff, 0xff, 0xff, 0xff, 0xff, 0xff, 0xff, 0xff, 0xff, 0x3f,
   0xb7, 0xaa, 0xaa, 0x4d, 0x55, 0x55, 0xa5, 0xad, 0xfa, 0xff, 0xd7, 0xfd,
   0xef, 0xfa, 0xc8, 0x6e, 0xb5, 0x55, 0xd5, 0xaa, 0xde, 0xaa, 0xaa, 0x94,
   0xff, 0xff, 0xef, 0xff, 0xff, 0xff, 0xff, 0xff, 0xff, 0xff, 0xff, 0xff,
   0xff, 0xff, 0xff, 0x3f, 0x54, 0xbd, 0x36, 0x55, 0xa9, 0xaa, 0x5a, 0xd2,
   0xff, 0xff, 0x2b, 0xf5, 0xd5, 0xe5, 0x55, 0xa9, 0x4a, 0xbd, 0x55, 0xbf,
   0x50, 0x55, 0xd5, 0xf6, 0xff, 0xff, 0xff, 0xff, 0xff, 0xff, 0xff, 0xff,
   0xff, 0xff, 0xff, 0xff, 0xff, 0xff, 0xff, 0x3f, 0xaa, 0x6a, 0x6d, 0x55,
   0x55, 0x55, 0xd5, 0xaa, 0xfe, 0xff, 0x57, 0xfa, 0xf5, 0xea, 0x55, 0xab,
   0x5a, 0x6b, 0xd5, 0xb2, 0xab, 0xaa, 0x7a, 0xf5, 0xff, 0xff, 0xef, 0xff,
   0xff, 0xff, 0xbf, 0xff, 0xff, 0xff, 0xff, 0xff, 0xff, 0xff, 0xff, 0x3f,
   0xd5, 0xaa, 0xaa, 0xaa, 0xaa, 0x55, 0x95, 0xaa, 0xfa, 0xff, 0xd7, 0xfe,
   0xff, 0x2f, 0x6a, 0x55, 0xb5, 0xaa, 0xaa, 0x56, 0xaa, 0x56, 0xe5, 0xff,
   0xff, 0xff, 0xff, 0xff, 0xff, 0xff, 0xff, 0xff, 0xff, 0xff, 0xff, 0xff,
   0xff, 0xff, 0xff, 0x3f, 0xbd, 0xaa, 0xaa, 0xea, 0x6b, 0x55, 0xb7, 0xaa,
   0xfe, 0xff, 0x9f, 0xfe, 0xff, 0x6f, 0xd5, 0x56, 0xef, 0xaa, 0xaa, 0xaa,
   0x4a, 0x7d, 0xf5, 0xff, 0xff, 0xff, 0xff, 0xff, 0xff, 0xff, 0xff, 0xff,
   0xff, 0xff, 0xff, 0xff, 0xff, 0xff, 0xff, 0x3f, 0x6a, 0x55, 0x55, 0xad,
   0xaa, 0xab, 0xaa, 0x56, 0xfd, 0xff, 0xeb, 0xff, 0xff, 0x5f, 0x55, 0xd5,
   0x54, 0x55, 0x55, 0x55, 0xb5, 0x4a, 0xf5, 0xff, 0xff, 0xff, 0xff, 0xff,
   0xff, 0xff, 0xff, 0xff, 0xff, 0xff, 0xff, 0xff, 0xff, 0xff, 0xff, 0x2b,
   0x55, 0xd5, 0xab, 0xab, 0xaa, 0x54, 0xd5, 0x5a, 0xfd, 0xff, 0xf7, 0xff,
   0xff, 0x7f, 0x55, 0x55, 0x55, 0x55, 0xd5, 0xdd, 0xd4, 0xaa, 0xea, 0xff,
   0xff, 0xff, 0xff, 0xff, 0xff, 0xff, 0xff, 0xff, 0xff, 0xff, 0xfd, 0xff,
   0xff, 0xff, 0xff, 0x2d, 0xaa, 0xba, 0xaa, 0x56, 0x55, 0x55, 0x55, 0xb7,
   0xfe, 0xff, 0xf7, 0xff, 0xff, 0xbd, 0xaa, 0x52, 0x55, 0x55, 0xbd, 0xb6,
   0xda, 0x55, 0x55, 0xff, 0xff, 0xff, 0xff, 0xff, 0xff, 0xff, 0xff, 0xff,
   0xff, 0xff, 0xff, 0xff, 0xff, 0xff, 0xbf, 0x1b, 0x6b, 0xa5, 0xaa, 0x54,
   0xad, 0xaa, 0xaa, 0x54, 0xff, 0xff, 0xbf, 0xff, 0xff, 0xff, 0xaa, 0x56,
   0x6d, 0x57, 0x55, 0x55, 0x95, 0xaa, 0xea, 0xfe, 0xff, 0xff, 0xff, 0xff,
   0xff, 0xff, 0xff, 0xff, 0xff, 0xff, 0xff, 0xff, 0xff, 0x5f, 0x75, 0x3f,
   0xdd, 0xaa, 0xaa, 0x55, 0x7b, 0xad, 0xaa, 0x55, 0xff, 0xff, 0x6b, 0xff,
   0xff, 0xfd, 0xab, 0x94, 0xda, 0xaa, 0xbb, 0xaa, 0xaa, 0xaa, 0xdd, 0x6d,
   0xfb, 0xff, 0xff, 0xff, 0xff, 0xff, 0xff, 0xff, 0xff, 0xff, 0xff, 0xff,
   0xff, 0xf6, 0xee, 0x3f, 0xab, 0xaa, 0xaa, 0xaa, 0xaa, 0xb5, 0xaa, 0xaa,
   0xff, 0xff, 0x5b, 0xff, 0xff, 0xff, 0x55, 0xb5, 0xb2, 0xad, 0xaa, 0xaa,
   0x5a, 0x55, 0x35, 0xbb, 0xab, 0xff, 0xff, 0xff, 0xff, 0xff, 0xff, 0xff,
   0xff, 0xff, 0xfe, 0xff, 0xff, 0xde, 0xed, 0x3f, 0xaa, 0xda, 0xaf, 0x55,
   0x55, 0x6f, 0xab, 0xaa, 0xff, 0xff, 0xa7, 0xfe, 0xff, 0xfd, 0x55, 0xd5,
   0x56, 0xba, 0xaa, 0xaa, 0x6d, 0xaf, 0x4a, 0xd5, 0xef, 0xff, 0xff, 0xff,
   0xff, 0xff, 0xff, 0xff, 0xff, 0xff, 0xff, 0xff, 0xdf, 0xff, 0xff, 0x3f,
   0x55, 0xb5, 0x7a, 0xab, 0xaa, 0x6a, 0x55, 0xd5, 0xff, 0xff, 0xaf, 0xff,
   0xff, 0xff, 0xaa, 0xba, 0x55, 0xd5, 0x55, 0x55, 0xdb, 0xba, 0x5a, 0xb5,
   0xdb, 0xff, 0xab, 0xfd, 0xff, 0xff, 0xff, 0xff, 0xff, 0x7f, 0xff, 0xdf,
   0xb7, 0xff, 0xff, 0x3f, 0xaa, 0x6a, 0x55, 0xd5, 0x55, 0xd5, 0x6a, 0xd5,
   0xff, 0xff, 0xab, 0xff, 0xff, 0xfd, 0x57, 0x77, 0xb5, 0x55, 0x55, 0xed,
   0xb6, 0x4a, 0xd5, 0xfe, 0xff, 0xff, 0xfd, 0xfb, 0xff, 0xff, 0xff, 0xff,
   0xff, 0xff, 0xff, 0x6b, 0xff, 0x6a, 0xbf, 0x3f, 0xfa, 0xaf, 0xaf, 0xaa,
   0x56, 0x95, 0xaa, 0xf5, 0xff, 0xff, 0xd7, 0xff, 0xff, 0xfd, 0xa7, 0xd6,
   0xb7, 0xaa, 0xaa, 0xaa, 0x6e, 0x55, 0xb5, 0xf5, 0x7f, 0xad, 0xfd, 0xeb,
   0x7e, 0x57, 0xff, 0xff, 0xff, 0xff, 0xff, 0xff, 0xff, 0x6f, 0x69, 0x35,
   0x95, 0x5a, 0xa9, 0xaa, 0xad, 0x6a, 0x75, 0xe5, 0xff, 0xff, 0xd7, 0xff,
   0xff, 0xfb, 0x5f, 0x5d, 0xed, 0x56, 0x55, 0xdd, 0x55, 0x55, 0x55, 0xeb,
   0xef, 0x7d, 0xff, 0xbe, 0xeb, 0xfa, 0xfe, 0xff, 0xff, 0xff, 0xff, 0xeb,
   0x7b, 0xb5, 0xb7, 0x2f, 0x55, 0x55, 0x55, 0x7b, 0x5b, 0xdd, 0x6d, 0xef,
   0xff, 0xff, 0xfb, 0xff, 0xff, 0xfe, 0xbf, 0x52, 0x49, 0x75, 0x75, 0x2b,
   0x55, 0x55, 0x55, 0x95, 0x7a, 0xd5, 0xfe, 0xff, 0xff, 0xff, 0xfd, 0xff,
   0xff, 0xff, 0xff, 0x57, 0x6b, 0x6f, 0xed, 0x3f, 0xaa, 0xaa, 0xaa, 0xed,
   0xb6, 0x6a, 0xab, 0xd5, 0xff, 0xff, 0xaf, 0x86, 0xfe, 0xf1, 0xbf, 0xaa,
   0x56, 0xaf, 0xaa, 0x55, 0x55, 0x55, 0x55, 0x55, 0xab, 0xbb, 0xff, 0xff,
   0x7f, 0xbf, 0xf6, 0x5f, 0xff, 0xff, 0xff, 0xdb, 0xee, 0xba, 0xbb, 0x3f,
   0xaa, 0xb6, 0xaa, 0x4a, 0xa5, 0xaa, 0x6a, 0xd5, 0xff, 0xff, 0xab, 0xba,
   0xff, 0xf7, 0xff, 0x55, 0xb5, 0xd4, 0x5a, 0x5b, 0xad, 0xaa, 0x7d, 0x55,
   0xf5, 0xff, 0x55, 0xff, 0xfe, 0xff, 0xef, 0x77, 0xfd, 0xff, 0xff, 0xfd,
   0xff, 0x6b, 0xff, 0x3f, 0x55, 0xdb, 0xaa, 0xaa, 0x5a, 0x55, 0x55, 0x2b,
   0x50, 0xff, 0x57, 0x45, 0xff, 0xf5, 0x7f, 0x55, 0xaf, 0xaa, 0xaa, 0xf6,
   0x5b, 0xb5, 0xab, 0xaa, 0xfa, 0xff, 0xef, 0xff, 0xf5, 0xff, 0x5f, 0xad,
   0xab, 0xff, 0xab, 0xfb, 0xff, 0xfe, 0xff, 0x3f, 0xaa, 0xb6, 0xaa, 0xaa,
   0x55, 0x55, 0x55, 0xda, 0xcb, 0xff, 0xab, 0x5a, 0xff, 0xf5, 0xff, 0xaa,
   0x6a, 0x55, 0x55, 0x95, 0xaa, 0xaa, 0xd6, 0xaa, 0xd2, 0xf6, 0x5a, 0xfb,
   0x6d, 0xff, 0xff, 0xfd, 0xfe, 0xfe, 0x7f, 0xff, 0xfe, 0xd5, 0xff, 0x3f,
   0x7f, 0xdb, 0xaa, 0xaa, 0xb6, 0xaa, 0xab, 0x2a, 0x55, 0xff, 0xd7, 0xad,
   0xfe, 0xf7, 0xff, 0xfe, 0xdd, 0xaf, 0xaa, 0xaa, 0xaa, 0xed, 0xba, 0x6d,
   0xab, 0xaa, 0xb6, 0xad, 0xf6, 0xaa, 0xfe, 0xff, 0xa7, 0xbb, 0xfa, 0xbf,
   0xfb, 0xff, 0xaf, 0x1a, 0xd2, 0xb6, 0x55, 0xd5, 0xed, 0xaa, 0xae, 0xbe,
   0xaa, 0xd0, 0x97, 0x55, 0xf5, 0xad, 0xbf, 0x4a, 0x5b, 0xba, 0xaa, 0xaa,
   0xaa, 0x5b, 0x6f, 0xdb, 0xaa, 0xda, 0xb5, 0xb5, 0xad, 0x55, 0xff, 0xff,
   0xaf, 0xee, 0xf6, 0xbf, 0xfe, 0xff, 0xff, 0x36, 0xad, 0xaa, 0xaa, 0xba,
   0xb6, 0x6a, 0x5b, 0x51, 0x55, 0xef, 0xef, 0xff, 0xff, 0xff, 0xd7, 0xaa,
   0xaa, 0xa5, 0xaa, 0xda, 0x6a, 0xaa, 0xa8, 0xaa, 0x56, 0x55, 0xaa, 0xfa,
   0x77, 0xbf, 0xaa, 0x55, 0xfb, 0xfe, 0xdb, 0xf6, 0xd5, 0xaf, 0xaa, 0x3f,
   0xa9, 0xaa, 0xaa, 0xab, 0xdd, 0xdf, 0xda, 0xa7, 0xfe, 0xda, 0xdf, 0xff,
   0xff, 0xff, 0x54, 0x55, 0x55, 0xd5, 0x57, 0x55, 0xdf, 0xaa, 0xab, 0xaa,
   0xfc, 0xaa, 0xaa, 0xea, 0xd7, 0xea, 0x7e, 0x7f, 0xaf, 0xfd, 0xb7, 0x56,
   0xbb, 0xea, 0xef, 0x3f, 0x56, 0x55, 0x55, 0x6d, 0x55, 0xaa, 0x35, 0xd5,
   0xdb, 0xff, 0xff, 0xff, 0xff, 0xff, 0x55, 0x55, 0xad, 0xaa, 0xaa, 0xed,
   0x54, 0x55, 0xaa, 0xaa, 0x92, 0xaa, 0xaa, 0xfe, 0xff, 0xff, 0xab, 0xd5,
   0xfd, 0xde, 0xdf, 0xbd, 0x6d, 0x5f, 0xbd, 0x3f, 0xa9, 0x6a, 0x57, 0x55,
   0xd5, 0xaa, 0x6a, 0x55, 0xff, 0xff, 0xff, 0xff, 0xff, 0x57, 0x55, 0x55,
   0x75, 0xaf, 0xaa, 0x55, 0x55, 0x55, 0x55, 0xfb, 0x55, 0x55, 0xef, 0xfa,
   0xdf, 0xff, 0xff, 0xb6, 0xff, 0x7f, 0xfd, 0xbf, 0xd5, 0xfa, 0xff, 0x3f,
   0xaa, 0xda, 0x5a, 0xa5, 0x2a, 0x55, 0x55, 0xd5, 0xff, 0xff, 0xff, 0xff,
   0xff, 0x2f, 0x55, 0x55, 0xd5, 0xaa, 0xea, 0xae, 0xaa, 0xaa, 0xaa, 0x96,
   0xaa, 0xaa, 0xda, 0xff, 0xff, 0xff, 0xbf, 0xdd, 0xff, 0xdf, 0xff, 0xff,
   0x6e, 0xf7, 0xff, 0x3f, 0xd5, 0xb6, 0xb7, 0xaa, 0x6d, 0x55, 0x6f, 0x95,
   0xff, 0xff, 0xff, 0xff, 0x5f, 0x6b, 0x55, 0x55, 0xaa, 0xaa, 0xad, 0xab,
   0xaa, 0xaa, 0xda, 0xb6, 0xa5, 0xaa, 0xaa, 0xaa, 0x7e, 0x55, 0xfd, 0xbf,
   0x6a, 0x5b, 0xdd, 0xb6, 0xff, 0xfe, 0xb5, 0x36, 0xaa, 0x6d, 0xed, 0x6a,
   0x9b, 0xaa, 0xda, 0x55, 0xff, 0xff, 0xff, 0xff, 0xaf, 0xaa, 0xaa, 0x57,
   0x55, 0x75, 0x5b, 0xfd, 0xff, 0x55, 0xb5, 0xdd, 0xaa, 0x54, 0xd5, 0xfe,
   0xfd, 0xef, 0xeb, 0x7f, 0xaf, 0x6d, 0x6b, 0x6b, 0xff, 0xaf, 0xee, 0x2d,
   0xaa, 0xaa, 0xaa, 0x4a, 0xb5, 0x6a, 0xb5, 0xad, 0xff, 0xff, 0xff, 0xff,
   0xdf, 0xaa, 0xaa, 0xaa, 0xaa, 0xd6, 0xd6, 0x4a, 0x92, 0xaa, 0x6a, 0xb5,
   0x55, 0x6b, 0x55, 0x49, 0xbd, 0x5a, 0xaf, 0x6f, 0x7d, 0x6f, 0xfd, 0xdf,
   0xff, 0xff, 0xad, 0x3d, 0x55, 0x55, 0x55, 0x55, 0xd5, 0xdf, 0x6f, 0x5b,
   0xff, 0xff, 0xff, 0xff, 0xbf, 0xeb, 0x76, 0x95, 0x76, 0xad, 0xaa, 0x5a,
   0x55, 0xdb, 0xaa, 0x4a, 0x75, 0x5d, 0xa9, 0xaa, 0xeb, 0xf6, 0x7f, 0xb5,
   0xff, 0xbf, 0xfb, 0xb7, 0xaa, 0xaa, 0xf6, 0x3f, 0x55, 0x55, 0x55, 0x55,
   0x55, 0x55, 0x6d, 0xfb, 0xfe, 0xff, 0xfb, 0xf7, 0x77, 0xcd, 0x56, 0x55,
   0xd5, 0xad, 0xaa, 0xaa, 0xaa, 0xba, 0xaa, 0x5a, 0xd5, 0xab, 0x4a, 0x55,
   0xae, 0xd6, 0xd7, 0xee, 0xff, 0xbf, 0xf6, 0xaf, 0xed, 0xde, 0xd6, 0x3f,
   0xba, 0x55, 0xf5, 0x56, 0x55, 0x55, 0xa9, 0x4a, 0x7d, 0xbf, 0xfe, 0xed,
   0xaf, 0x5d, 0x55, 0x55, 0x55, 0xaa, 0x5a, 0x55, 0x55, 0xa5, 0xaa, 0x52,
   0x5b, 0xdd, 0xb6, 0xaa, 0xfd, 0xff, 0xff, 0xbf, 0x4a, 0xd5, 0xff, 0xff,
   0xbf, 0xb5, 0xff, 0x3f, 0x6a, 0xab, 0xca, 0x56, 0x55, 0x55, 0x55, 0x55,
   0xd5, 0xea, 0xaa, 0xad, 0x6a, 0xab, 0xaa, 0xaa, 0xaa, 0xaa, 0xaa, 0xaa,
   0xaa, 0xaa, 0xaa, 0xaa, 0x76, 0xdb, 0xf6, 0x2a, 0xfd, 0xff, 0xff, 0xff,
   0x55, 0xfd, 0xff, 0xff, 0xbf, 0xed, 0xff, 0x3f, 0xad, 0x6d, 0xad, 0xad,
   0xaa, 0xaa, 0xaa, 0xaa, 0x7a, 0x5f, 0x7f, 0x7b, 0x5d, 0xad, 0xaa, 0xaa,
   0xaa, 0xaa, 0xaa, 0xaa, 0x4a, 0x55, 0x55, 0x55, 0x55, 0xb5, 0xad, 0xaa,
   0xfe, 0xff, 0xfe, 0x2f, 0xab, 0xc5, 0xdf, 0xff, 0xff, 0xb7, 0x7f, 0x3f,
   0x7b, 0xab, 0x5b, 0xbb, 0xdb, 0xaa, 0xba, 0x4a, 0xd5, 0x75, 0xfd, 0x56,
   0x5b, 0xb5, 0xab, 0x7d, 0xd5, 0xff, 0xaa, 0xde, 0x54, 0xdd, 0xad, 0x7a,
   0x55, 0x25, 0x55, 0x55, 0x91, 0xaa, 0x55, 0x6d, 0xaa, 0x1a, 0x55, 0x55,
   0xbf, 0xbf, 0x4a, 0x11, 0xd6, 0x6e, 0x56, 0x55, 0x6d, 0x55, 0xd5, 0xaa,
   0xaa, 0xae, 0xff, 0xb5, 0x6a, 0xd5, 0xaa, 0xa6, 0xaa, 0xaa, 0x55, 0xb5,
   0xaa, 0xab, 0x56, 0x55, 0x55, 0xd5, 0xaa, 0xaa, 0x56, 0xed, 0xee, 0xaa,
   0xaa, 0xea, 0xbe, 0xed, 0xff, 0x7f, 0x5b, 0x15, 0xaa, 0xd4, 0xaa, 0x56,
   0x55, 0x55, 0x57, 0x55, 0xb5, 0xfd, 0xfe, 0xa7, 0x5a, 0x55, 0x57, 0x55,
   0xeb, 0xb6, 0xd7, 0xaa, 0x5a, 0xfa, 0xdd, 0xaa, 0xaa, 0xaa, 0xaa, 0xaa,
   0xd6, 0xdb, 0xff, 0x57, 0xbb, 0x4a, 0x51, 0xad, 0xf6, 0xa6, 0xaa, 0x36,
   0x55, 0x95, 0x54, 0xa9, 0x6a, 0x7f, 0x55, 0x55, 0x55, 0xff, 0xff, 0x55,
   0xf5, 0xaa, 0x5a, 0xd5, 0xde, 0x6d, 0xbd, 0xaa, 0xf6, 0x57, 0xbb, 0xaa,
   0xaa, 0xaa, 0xff, 0x7f, 0xbb, 0xf6, 0xff, 0xda, 0xd6, 0xaa, 0xaa, 0xb5,
   0xad, 0x55, 0xf5, 0x2d, 0x55, 0x55, 0xa5, 0x56, 0x55, 0xc9, 0xaa, 0xaa,
   0xaa, 0xb4, 0xbf, 0x57, 0xaa, 0x55, 0x6b, 0x55, 0x29, 0x6b, 0xd5, 0xaa,
   0x54, 0xaa, 0xaa, 0xaa, 0xaa, 0xaa, 0x92, 0xc4, 0xaa, 0x8a, 0xf6, 0xbf,
   0xbf, 0xaa, 0xaa, 0x6e, 0xff, 0x5f, 0x95, 0x2a, 0xaa, 0xaa, 0x2a, 0xa9,
   0xaa, 0xaa, 0xaa, 0xaa, 0xaa, 0xaa, 0x6a, 0x54, 0xb5, 0xb6, 0xdf, 0x55,
   0x55, 0x95, 0x55, 0x55, 0xab, 0xaa, 0xaa, 0x7e, 0xf5, 0x77, 0xbf, 0x9a,
   0xaa, 0xea, 0xed, 0xff, 0x6b, 0xbb, 0x52, 0xd9, 0xff, 0xf7, 0xaa, 0x2a,
   0xaa, 0xaa, 0xaa, 0xaa, 0xaa, 0xaa, 0xaa, 0xaa, 0xaa, 0xaa, 0xda, 0xaa,
   0xea, 0x6b, 0xb5, 0x55, 0x55, 0xaa, 0xaa, 0xaa, 0xaa, 0xaa, 0xaa, 0x54,
   0x25, 0xd5, 0xaa, 0xaa, 0xaa, 0x2a, 0xdb, 0xff, 0x6f, 0x6b, 0xd5, 0x5a,
   0xff, 0xff, 0x55, 0x15, 0xb5, 0xad, 0xaa, 0x4a, 0xed, 0x77, 0xab, 0x6a,
   0x55, 0x55, 0x6a, 0xab, 0xfe, 0xb7, 0xdf, 0x56, 0x55, 0x55, 0xb5, 0xdd,
   0x56, 0x55, 0x77, 0x7b, 0xd5, 0x2a, 0xd5, 0xb6, 0x56, 0xd5, 0x6a, 0x55,
   0x55, 0x55, 0xb5, 0xfd, 0x57, 0x6a, 0x57, 0x15, 0xb5, 0xad, 0xaa, 0xaa,
   0xaa, 0xd6, 0x5e, 0xd5, 0xad, 0xaa, 0x6a, 0x55, 0xd5, 0xb7, 0xdf, 0xad,
   0x52, 0x95, 0x6a, 0xdb, 0x5d, 0x55, 0xd6, 0xd6, 0x97, 0xaa, 0xaa, 0xed,
   0xad, 0xaa, 0x6a, 0xff, 0xab, 0xaa, 0x6a, 0xfb, 0xff, 0x6a, 0xbd, 0x2a,
   0x6d, 0x5b, 0xab, 0xda, 0xb6, 0xbd, 0x55, 0xad, 0xaa, 0xaa, 0xaa, 0x55,
   0xdb, 0xff, 0xff, 0xaf, 0xaa, 0x6a, 0xdb, 0xb6, 0xb6, 0xaa, 0xaa, 0xaa,
   0xb4, 0xb6, 0x5a, 0x55, 0x55, 0x55, 0xdd, 0xaa, 0x56, 0xb5, 0xad, 0xb6,
   0xae, 0xaa, 0x6a, 0x15, 0x7d, 0xf7, 0x56, 0xd5, 0x76, 0x6b, 0x77, 0xab,
   0xaa, 0xb6, 0x7b, 0xeb, 0x76, 0xfd, 0xff, 0x7f, 0x55, 0xdb, 0xb6, 0xed,
   0xea, 0xaf, 0xaa, 0xaa, 0x52, 0xed, 0x76, 0x55, 0x55, 0xdd, 0xb5, 0xdb,
   0xaa, 0x6a, 0xab, 0xaa, 0x54, 0x55, 0xd5, 0x3d, 0xab, 0xad, 0xad, 0xba,
   0xad, 0xad, 0xad, 0xad, 0xaa, 0x6e, 0xd7, 0x5a, 0xdb, 0xfb, 0xff, 0x5f,
   0xd5, 0x6d, 0xdb, 0xb6, 0x57, 0xaa, 0xaa, 0xaa, 0xaa, 0x5a, 0xab, 0xaa,
   0xaa, 0xbb, 0x6a, 0x6d, 0xaf, 0xaa, 0x56, 0x55, 0x55, 0xa9, 0xba, 0x2b };
