#define test_width 128
#define test_height 51
static unsigned char test_bits[] = {
   0xff, 0xff, 0xff, 0xff, 0xff, 0xff, 0xff, 0xff, 0xff, 0xff, 0xff, 0xff,
   0xff, 0xff, 0xff, 0xff, 0xff, 0xff, 0xff, 0xff, 0xff, 0xff, 0xff, 0xff,
   0xff, 0xff, 0xff, 0xff, 0xff, 0xff, 0xff, 0xff, 0xff, 0xff, 0xff, 0xff,
   0xff, 0xff, 0xff, 0xff, 0xff, 0xff, 0xff, 0xff, 0xff, 0xff, 0xff, 0xff,
   0xff, 0xff, 0xff, 0xff, 0xff, 0xff, 0xff, 0xff, 0xff, 0xff, 0xff, 0xff,
   0xff, 0xff, 0xff, 0xff, 0xff, 0xff, 0xff, 0xff, 0xff, 0xff, 0xff, 0xff,
   0xff, 0xff, 0xff, 0xff, 0xff, 0xff, 0xff, 0xff, 0xff, 0xff, 0xff, 0xff,
   0xff, 0xff, 0xff, 0xff, 0xff, 0xff, 0xff, 0xff, 0xff, 0xff, 0xff, 0xff,
   0xff, 0xff, 0xff, 0xff, 0xff, 0xff, 0xff, 0xff, 0xff, 0xff, 0xff, 0xff,
   0xff, 0xff, 0xff, 0xff, 0xff, 0xff, 0xff, 0xff, 0xff, 0xff, 0xff, 0xff,
   0xff, 0xff, 0xff, 0xff, 0xff, 0xff, 0xff, 0xff, 0xff, 0xff, 0xff, 0xff,
   0xff, 0xff, 0xff, 0xff, 0xff, 0xff, 0xff, 0xff, 0xff, 0xff, 0xff, 0xff,
   0xff, 0xff, 0xff, 0xff, 0xff, 0xff, 0xff, 0xff, 0xff, 0xff, 0xff, 0xff,
   0xff, 0xff, 0xff, 0xff, 0xff, 0xff, 0xff, 0xff, 0xff, 0xff, 0xff, 0xff,
   0xff, 0xff, 0xff, 0xff, 0xff, 0xff, 0xff, 0xff, 0xff, 0xff, 0xff, 0xff,
   0xff, 0xff, 0xff, 0xff, 0xff, 0xff, 0xff, 0xff, 0xff, 0xff, 0xff, 0xff,
   0xff, 0xff, 0xff, 0xff, 0xff, 0xff, 0xff, 0xff, 0xff, 0xff, 0xff, 0xff,
   0xff, 0xff, 0xff, 0xff, 0xff, 0xff, 0xff, 0xff, 0xff, 0xff, 0xff, 0x7f,
   0xfc, 0xff, 0xff, 0xff, 0xff, 0xff, 0xff, 0xff, 0xff, 0xff, 0xff, 0xff,
   0xff, 0xff, 0xff, 0x1f, 0xf0, 0xff, 0xff, 0xff, 0xff, 0xff, 0xff, 0xff,
   0xff, 0xff, 0xff, 0xff, 0xff, 0xff, 0xff, 0x0f, 0xe0, 0xff, 0xff, 0xff,
   0xff, 0xff, 0xff, 0xff, 0xff, 0xff, 0xdf, 0xff, 0xff, 0xff, 0xff, 0x0f,
   0xe0, 0xff, 0xff, 0xff, 0xff, 0xff, 0xff, 0xff, 0xff, 0xff, 0xbf, 0xff,
   0xff, 0xff, 0xff, 0x07, 0xc0, 0xff, 0xff, 0xff, 0xff, 0xff, 0xff, 0xff,
   0xff, 0xff, 0x7f, 0xff, 0xff, 0xff, 0x7f, 0x07, 0xc0, 0xff, 0xff, 0xff,
   0xff, 0xff, 0xff, 0xff, 0xff, 0xff, 0x7f, 0xf7, 0xdf, 0x7f, 0xeb, 0x06,
   0x80, 0xb6, 0xff, 0xff, 0xff, 0xff, 0xff, 0xff, 0xff, 0xff, 0xff, 0xdf,
   0xf6, 0xee, 0xff, 0xff, 0xff, 0xff, 0xff, 0xff, 0xff, 0xff, 0xff, 0xff,
   0xff, 0xff, 0xff, 0xda, 0xde, 0xbd, 0xdb, 0x0a, 0x50, 0xef, 0xda, 0xff,
   0xff, 0xff, 0xff, 0xff, 0xff, 0xff, 0xff, 0x77, 0xeb, 0xf7, 0xb7, 0xaf,
   0xda, 0xbf, 0x7f, 0xff, 0xff, 0xff, 0xff, 0xff, 0xff, 0xff, 0xff, 0x6f,
   0xbd, 0xde, 0xb7, 0x3a, 0x34, 0x7f, 0xeb, 0xf6, 0xff, 0xff, 0xff, 0xff,
   0xff, 0xff, 0xff, 0xf6, 0xf7, 0xf5, 0x6f, 0xd7, 0xdd, 0xed, 0xfd, 0xff,
   0xff, 0xff, 0xff, 0xff, 0xff, 0xff, 0xef, 0xdf, 0xbe, 0xff, 0x6f, 0x5d,
   0xbb, 0xbf, 0x5b, 0xdb, 0xff, 0xff, 0xff, 0xff, 0xff, 0xff, 0xff, 0xff,
   0xfb, 0xfa, 0xbe, 0xb5, 0xad, 0xff, 0xee, 0x6f, 0xff, 0xff, 0xff, 0xff,
   0xff, 0xff, 0xff, 0xb6, 0xf6, 0xff, 0x7f, 0xab, 0xba, 0xff, 0x5d, 0xfd,
   0xfb, 0xff, 0xff, 0xfd, 0xff, 0xff, 0xdf, 0xff, 0xfd, 0xff, 0xbd, 0xb6,
   0xea, 0xfd, 0xf6, 0xb7, 0xef, 0xff, 0xff, 0xf6, 0xff, 0xff, 0xff, 0xb7,
   0xf5, 0xff, 0xbb, 0x6a, 0xb5, 0xf7, 0xad, 0xee, 0xbe, 0xff, 0xbf, 0xfe,
   0xff, 0xef, 0x7f, 0xff, 0xf6, 0xff, 0x7f, 0xd5, 0xea, 0xff, 0xbb, 0xdd,
   0xfb, 0xfd, 0x5f, 0xfd, 0xff, 0xdf, 0xff, 0xd7, 0xeb, 0xff, 0x6f, 0xaf,
   0x55, 0xfb, 0x6f, 0x5b, 0xdf, 0xff, 0x7d, 0xf9, 0xff, 0xfb, 0xff, 0xff,
   0xfa, 0xff, 0xfb, 0x6a, 0xea, 0x7d, 0xb7, 0xfd, 0xf5, 0xfb, 0xbf, 0xfa,
   0xff, 0xbf, 0xff, 0xff, 0xf7, 0xff, 0xff, 0xdf, 0x52, 0xeb, 0xbf, 0xb7,
   0xbf, 0xff, 0xff, 0xff, 0xff, 0xff, 0xff, 0xff, 0xff, 0xff, 0xb7, 0xbf,
   0xfa, 0xf6, 0xff, 0xfd, 0xff, 0xff, 0xff, 0xff, 0xff, 0xff, 0xfe, 0xff,
   0xff, 0xff, 0xf7, 0xff, 0xde, 0xfe, 0xff, 0xbf, 0xff, 0xfe, 0xff, 0xff,
   0xff, 0xff, 0xff, 0xff, 0xff, 0xfd, 0xff, 0x7e, 0xbf, 0xff, 0xff, 0xff,
   0xff, 0xff, 0xff, 0xff, 0xff, 0xff, 0xff, 0xff, 0xff, 0x5f, 0xdd, 0xed,
   0x77, 0xfd, 0xff, 0xff, 0xeb, 0xfd, 0xff, 0xff, 0xff, 0xff, 0xff, 0xff,
   0xbf, 0xfb, 0x77, 0xbf, 0xda, 0xf7, 0xff, 0xff, 0xff, 0xff, 0xff, 0xff,
   0xff, 0xff, 0xff, 0xff, 0x77, 0xaf, 0xd6, 0x00, 0x00, 0x56, 0xd5, 0xfe,
   0xff, 0xff, 0xff, 0xff, 0xff, 0xff, 0xff, 0xff, 0xff, 0xff, 0xbd, 0x02,
   0xe0, 0xff, 0xff, 0xff, 0xff, 0xff, 0xff, 0xff, 0xff, 0xff, 0xff, 0xff,
   0xff, 0x55, 0xa5, 0x00, 0x00, 0xa9, 0xfe, 0xff, 0xff, 0xff, 0xff, 0xff,
   0xff, 0xff, 0xff, 0xff, 0xdf, 0xff, 0xff, 0xcb, 0xff, 0xff, 0x6f, 0xb5,
   0xff, 0xff, 0xff, 0xff, 0xff, 0xff, 0xff, 0xbf, 0xff, 0x7f, 0xaf, 0x9f,
   0xb7, 0xda, 0xff, 0xff, 0xff, 0xff, 0xff, 0xff, 0xff, 0xff, 0xff, 0xff,
   0xff, 0xf7, 0xfb, 0xfd, 0xff, 0xff, 0xfd, 0xff, 0xff, 0xff, 0xff, 0xff,
   0xff, 0xff, 0xff, 0xff, 0xff, 0x6f, 0xaf, 0xb7, 0xee, 0xff, 0xff, 0xff,
   0xff, 0xff, 0xff, 0xff, 0xff, 0xff, 0xff, 0xff, 0x5b, 0xdd, 0x5a, 0xd5,
   0x5a, 0x92, 0xfe, 0xff, 0xff, 0xff, 0xff, 0xff, 0xff, 0xff, 0xff, 0x7f,
   0xff, 0xff, 0xff, 0xff, 0xd7, 0xfe, 0xf5, 0xff, 0xff, 0xff, 0xff, 0xff,
   0xff, 0xff, 0xff, 0xff, 0xff, 0xff, 0xff, 0xff, 0xff, 0xff, 0xff, 0xff,
   0xff, 0xff, 0xff, 0xff, 0xff, 0xff, 0xff, 0xff, 0xff, 0xff, 0xff, 0xff,
   0xff, 0xff, 0xff, 0xff, 0xff, 0xff, 0xff, 0xff, 0xff, 0xff, 0xff, 0xff,
   0xff, 0xff, 0xff, 0xff, 0xff, 0xff, 0xff, 0xff, 0xff, 0xff, 0xff, 0xff };
